<?xml version="1.0" encoding="UTF-8" standalone="no"?>
<svg
   id="Layer_1"
   data-name="Layer 1"
   viewBox="0 0 431.24 219.94296"
   version="1.1"
   sodipodi:docname="logo-wide.svg"
   width="431.23999"
   height="219.94296"
   inkscape:version="1.2 (1:1.2.1+202207142221+cd75a1ee6d)"
   xmlns:inkscape="http://www.inkscape.org/namespaces/inkscape"
   xmlns:sodipodi="http://sodipodi.sourceforge.net/DTD/sodipodi-0.dtd"
   xmlns="http://www.w3.org/2000/svg"
   xmlns:svg="http://www.w3.org/2000/svg"
   xmlns:rdf="http://www.w3.org/1999/02/22-rdf-syntax-ns#"
   xmlns:cc="http://creativecommons.org/ns#"
   xmlns:dc="http://purl.org/dc/elements/1.1/">
  <sodipodi:namedview
     id="namedview17"
     pagecolor="#505050"
     bordercolor="#ffffff"
     borderopacity="1"
     inkscape:showpageshadow="0"
     inkscape:pageopacity="0"
     inkscape:pagecheckerboard="1"
     inkscape:deskcolor="#505050"
     showgrid="false"
     inkscape:zoom="2.6944292"
     inkscape:cx="30.247594"
     inkscape:cy="64.206549"
     inkscape:window-width="1920"
     inkscape:window-height="1013"
     inkscape:window-x="0"
     inkscape:window-y="40"
     inkscape:window-maximized="1"
     inkscape:current-layer="Layer_1" />
  <defs
     id="defs4">
    <style
       id="style2">.cls-1{fill:#616161;}.cls-2{fill:#f37726;}</style>
  </defs>
  <title
     id="title6">Artboard 1</title>
  <g
     id="g310"
     transform="scale(2)">
    <path
       class="cls-1"
       d="m 27,63.43 v -3.69 l 4.78,-0.83 V 25.32 L 27,24.49 V 20.77 H 39.47 L 53.2,53.15 h 0.19 l 13.3,-32.38 h 12.86 v 3.72 l -4.79,0.83 v 33.59 l 4.79,0.83 v 3.69 H 64.22 v -3.69 l 5,-0.83 V 28.65 H 69.08 L 55.26,61.9 H 51.42 L 37.09,28.68 h -0.14 l 0.21,17.84 v 12.39 l 5.15,0.83 v 3.69 z M 91.35,76.22 A 13.26,13.26 0 0 1 89.6,76.07 c -0.72,-0.11 -1.28,-0.21 -1.67,-0.31 l 0.59,-4.54 a 12.21,12.21 0 0 0 1.36,0.1 c 0.59,0 1,0 1.22,0 a 3.69,3.69 0 0 0 3,-1.4 15.13,15.13 0 0 0 2.15,-3.83 L 97.63,62.75 86.41,35.91 83,35.44 v -3.72 h 13.3 v 3.72 l -3.83,0.6 6.17,15.84 1.5,4.14 h 0.18 l 7.32,-20 -4,-0.6 v -3.7 h 13 v 3.72 l -3.28,0.47 -12.48,32.38 a 19,19 0 0 1 -2.13,4.09 9.13,9.13 0 0 1 -3,2.81 8.6,8.6 0 0 1 -4.4,1.03 z M 135,64 a 24.79,24.79 0 0 1 -7.5,-1.14 24.21,24.21 0 0 1 -6.87,-3.52 v -9.07 h 4.48 l 1,6.7 a 17,17 0 0 0 4.13,1.83 17.26,17.26 0 0 0 4.81,0.64 12.24,12.24 0 0 0 5,-0.89 7.05,7.05 0 0 0 3.11,-2.47 6.84,6.84 0 0 0 0.16,-7.15 7.79,7.79 0 0 0 -3.1,-2.63 24.72,24.72 0 0 0 -5.87,-2 27.61,27.61 0 0 1 -7.42,-2.74 12.83,12.83 0 0 1 -4.61,-4.15 10.17,10.17 0 0 1 -1.57,-5.61 10.43,10.43 0 0 1 1.77,-6 12.13,12.13 0 0 1 4.94,-4.16 16.82,16.82 0 0 1 7.39,-1.53 21.34,21.34 0 0 1 7.92,1.36 19.44,19.44 0 0 1 5.67,3.3 v 8.51 h -4.48 l -1,-6.09 a 11.47,11.47 0 0 0 -3.29,-1.75 14.48,14.48 0 0 0 -4.86,-0.7 10.17,10.17 0 0 0 -4.33,0.86 7,7 0 0 0 -2.94,2.42 6.34,6.34 0 0 0 -1,3.65 5.57,5.57 0 0 0 0.95,3.24 7.85,7.85 0 0 0 3.09,2.42 31.77,31.77 0 0 0 5.77,1.94 Q 143,41 146.44,44.26 a 10.61,10.61 0 0 1 3.49,8.06 10.35,10.35 0 0 1 -1.86,6.09 12.28,12.28 0 0 1 -5.21,4.14 A 19.32,19.32 0 0 1 135,64 Z m 30.47,-0.61 v -3.65 l 4.79,-0.83 V 25.13 h -9.68 l -0.84,5.92 H 155.4 V 20.77 h 35.45 v 10.28 h -4.28 l -0.88,-5.92 H 176 v 33.78 l 4.78,0.83 v 3.69 z"
       id="path8" />
    <path
       class="cls-2"
       d="M 24,83 Q 15.75,80.67 12.25,75.6 A 21.21,21.21 0 0 1 8.8,63.3 V 54.63 Q 8.8,49.89 6.64,47.25 4.48,44.61 0,44.61 v -6.23 q 4.49,0 6.64,-2.6 2.15,-2.6 2.16,-7.39 v -8.7 A 21.14,21.14 0 0 1 12.28,7.39 Q 15.77,2.34 24,0 l 1.69,5 a 10.7,10.7 0 0 0 -6.63,5.32 20.45,20.45 0 0 0 -2,9.42 v 8.7 a 16.58,16.58 0 0 1 -1.79,7.84 12.45,12.45 0 0 1 -5.27,5.24 12.5,12.5 0 0 1 5.36,5.34 16.49,16.49 0 0 1 1.79,7.77 v 8.67 a 20.15,20.15 0 0 0 2,9.37 10.85,10.85 0 0 0 6.57,5.33 z"
       id="path10" />
    <path
       class="cls-2"
       d="m 192,82.46 -1.67,-4.93 a 10.72,10.72 0 0 0 6.45,-5.23 19.44,19.44 0 0 0 2,-9.22 v -8.55 a 15.61,15.61 0 0 1 1.88,-7.78 12.22,12.22 0 0 1 5.78,-5.14 11.72,11.72 0 0 1 -5.78,-5 15.83,15.83 0 0 1 -1.88,-7.87 v -8.61 a 19.74,19.74 0 0 0 -2,-9.27 10.52,10.52 0 0 0 -6.45,-5.23 L 192,0.75 Q 200,3 203.48,8 a 20.81,20.81 0 0 1 3.43,12.11 v 8.58 q 0,4.7 2.13,7.26 2.13,2.56 6.58,2.56 v 6.13 q -4.45,0 -6.58,2.61 -2.13,2.61 -2.13,7.26 v 8.55 a 20.8,20.8 0 0 1 -3.43,12.08 Q 200,80.16 192,82.46 Z"
       id="path12" />
    <path
       class="cls-1"
       d="m 12.46,105.84 -4.19,-11 H 8.19 c 0.08,0.88 0.12,1.91 0.12,3.1 v 7.87 H 7 V 93.47 h 2.14 l 3.92,10.2 h 0.08 l 3.94,-10.2 h 2.16 v 12.37 H 17.8 v -8 c 0,-0.91 0,-1.91 0.11,-3 h -0.06 l -4.24,11 z m 15.66,0 -0.29,-1.31 h -0.06 a 3.92,3.92 0 0 1 -1.39,1.17 4.13,4.13 0 0 1 -1.72,0.32 3.1,3.1 0 0 1 -2.15,-0.71 2.62,2.62 0 0 1 -0.79,-2 c 0,-1.87 1.5,-2.86 4.49,-3 h 1.58 V 99.7 a 2.31,2.31 0 0 0 -0.47,-1.59 1.91,1.91 0 0 0 -1.5,-0.53 6.2,6.2 0 0 0 -2.63,0.7 l -0.42,-1.06 a 6.86,6.86 0 0 1 3.13,-0.8 3.57,3.57 0 0 1 2.47,0.74 3.07,3.07 0 0 1 0.79,2.36 v 6.32 z m -3.18,-1 a 2.87,2.87 0 0 0 2.07,-0.72 2.66,2.66 0 0 0 0.75,-2 v -0.84 l -1.41,0.06 a 5.25,5.25 0 0 0 -2.42,0.53 1.57,1.57 0 0 0 -0.74,1.43 1.47,1.47 0 0 0 0.46,1.17 2,2 0 0 0 1.29,0.39 z m 11.34,-8.45 a 6.08,6.08 0 0 1 1.11,0.09 l -0.18,1.31 a 4.66,4.66 0 0 0 -1,-0.14 2.52,2.52 0 0 0 -1.94,0.92 3.35,3.35 0 0 0 -0.79,2.28 v 5 h -1.43 v -9.27 h 1.16 l 0.17,1.7 h 0.06 a 4.1,4.1 0 0 1 1.23,-1.39 2.89,2.89 0 0 1 1.61,-0.48 z m 4.23,4.68 a 14.94,14.94 0 0 1 1.11,-1.34 l 3,-3.17 h 1.66 l -3.75,3.94 4,5.32 h -1.7 l -3.26,-4.37 -1.07,0.9 v 3.47 H 39.12 V 92.67 h 1.39 v 7 c 0,0.31 0,0.79 -0.06,1.43 z M 52.14,106 a 4.29,4.29 0 0 1 -3.25,-1.25 4.89,4.89 0 0 1 -1.19,-3.49 5.33,5.33 0 0 1 1.11,-3.55 3.68,3.68 0 0 1 3,-1.32 3.5,3.5 0 0 1 2.75,1.14 4.37,4.37 0 0 1 1,3 v 0.89 h -6.4 a 3.7,3.7 0 0 0 0.82,2.47 2.87,2.87 0 0 0 2.21,0.84 7.64,7.64 0 0 0 3,-0.62 v 1.25 a 7.61,7.61 0 0 1 -1.43,0.46 7.15,7.15 0 0 1 -1.62,0.18 z m -0.37,-8.44 a 2.32,2.32 0 0 0 -1.8,0.73 3.34,3.34 0 0 0 -0.77,2 h 4.85 a 3.05,3.05 0 0 0 -0.6,-2 2.07,2.07 0 0 0 -1.68,-0.71 z m 12.48,7 h -0.08 a 3.27,3.27 0 0 1 -2.9,1.43 3.48,3.48 0 0 1 -2.83,-1.24 5.46,5.46 0 0 1 -1,-3.55 5.55,5.55 0 0 1 1,-3.56 3.44,3.44 0 0 1 2.83,-1.26 3.36,3.36 0 0 1 2.89,1.36 h 0.11 v -0.66 -0.66 -3.75 h 1.41 v 13.17 h -1.24 z m -2.81,0.25 a 2.54,2.54 0 0 0 2.09,-0.78 4,4 0 0 0 0.64,-2.53 v -0.3 a 4.63,4.63 0 0 0 -0.65,-2.81 2.51,2.51 0 0 0 -2.1,-0.84 2.14,2.14 0 0 0 -1.89,1 4.76,4.76 0 0 0 -0.65,2.7 4.64,4.64 0 0 0 0.65,2.69 2.23,2.23 0 0 0 1.91,0.9 z m 8.52,1 h -1.4 V 92.67 H 70 Z m 1.51,-9.26 H 73 l 2,5.28 a 18.81,18.81 0 0 1 0.83,2.61 h 0.08 q 0.11,-0.42 0.45,-1.47 0.34,-1.05 2.3,-6.42 h 1.52 l -4,10.54 a 5.11,5.11 0 0 1 -1.39,2.22 2.91,2.91 0 0 1 -1.94,0.66 5.93,5.93 0 0 1 -1.26,-0.14 v -1.13 a 4,4 0 0 0 1,0.11 2.13,2.13 0 0 0 2.06,-1.62 l 0.52,-1.33 z m 21.91,6 A 3.07,3.07 0 0 1 92.19,105.11 5.2,5.2 0 0 1 89,106 8,8 0 0 1 85.61,105.43 v -1.39 a 9,9 0 0 0 1.66,0.5 8.35,8.35 0 0 0 1.78,0.19 3.46,3.46 0 0 0 2.15,-0.55 1.78,1.78 0 0 0 0.74,-1.51 1.86,1.86 0 0 0 -0.27,-1 2.19,2.19 0 0 0 -0.86,-0.77 13.3,13.3 0 0 0 -1.82,-0.78 5.73,5.73 0 0 1 -2.47,-1.47 3.22,3.22 0 0 1 -0.74,-2.2 2.75,2.75 0 0 1 1.07,-2.28 4.46,4.46 0 0 1 2.84,-0.84 8.54,8.54 0 0 1 3.41,0.67 l -0.46,1.25 a 7.62,7.62 0 0 0 -3,-0.64 2.77,2.77 0 0 0 -1.78,0.5 1.59,1.59 0 0 0 -0.64,1.36 2.13,2.13 0 0 0 0.23,1.06 2.25,2.25 0 0 0 0.8,0.75 10.53,10.53 0 0 0 1.75,0.72 6.8,6.8 0 0 1 2.68,1.48 3,3 0 0 1 0.7,2.07 z m 5.3,2.31 a 5.55,5.55 0 0 0 0.72,0 5.43,5.43 0 0 0 0.55,-0.12 v 1.08 a 2.37,2.37 0 0 1 -0.67,0.17 4.81,4.81 0 0 1 -0.8,0.08 c -1.79,0 -2.69,-1 -2.69,-2.85 V 97.66 H 94.47 V 97 l 1.32,-0.57 0.6,-2 h 0.81 v 2.16 h 2.69 v 1.08 H 97.2 v 5.46 a 1.93,1.93 0 0 0 0.39,1.29 1.4,1.4 0 0 0 1.09,0.44 z M 106,96.41 a 6.23,6.23 0 0 1 1.11,0.09 L 107,97.81 a 4.66,4.66 0 0 0 -1,-0.14 2.5,2.5 0 0 0 -1.93,0.92 3.31,3.31 0 0 0 -0.8,2.28 v 5 h -1.47 v -9.29 h 1.2 l 0.17,1.7 h 0.06 a 4.12,4.12 0 0 1 1.24,-1.39 2.87,2.87 0 0 1 1.53,-0.48 z m 4.16,0.17 v 6 a 2.44,2.44 0 0 0 0.52,1.69 2.06,2.06 0 0 0 1.61,0.56 2.61,2.61 0 0 0 2.12,-0.79 4,4 0 0 0 0.68,-2.61 v -4.85 h 1.4 v 9.26 h -1.15 l -0.21,-1.25 h -0.08 a 2.79,2.79 0 0 1 -1.18,1.07 4.09,4.09 0 0 1 -1.75,0.36 3.55,3.55 0 0 1 -2.53,-0.8 3.41,3.41 0 0 1 -0.85,-2.58 v -6.06 z m 13,9.44 a 4,4 0 0 1 -3.11,-1.24 5.09,5.09 0 0 1 -1.1,-3.51 5.25,5.25 0 0 1 1.12,-3.6 4,4 0 0 1 3.19,-1.26 6.1,6.1 0 0 1 1.34,0.14 4,4 0 0 1 1,0.34 l -0.42,1.19 a 6.2,6.2 0 0 0 -1,-0.31 4.12,4.12 0 0 0 -1,-0.13 q -2.84,0 -2.83,3.61 a 4.28,4.28 0 0 0 0.69,2.62 2.4,2.4 0 0 0 2,0.91 6.24,6.24 0 0 0 2.38,-0.5 v 1.25 a 5.09,5.09 0 0 1 -2.21,0.47 z m 7.55,-1.16 a 5.55,5.55 0 0 0 0.72,0 5.43,5.43 0 0 0 0.55,-0.12 v 1.08 a 2.36,2.36 0 0 1 -0.68,0.17 4.7,4.7 0 0 1 -0.79,0.08 c -1.79,0 -2.69,-1 -2.69,-2.85 v -5.56 h -1.33 V 97 l 1.33,-0.57 0.59,-2 h 0.82 v 2.16 H 132 v 1.08 h -2.68 v 5.46 a 1.93,1.93 0 0 0 0.39,1.29 1.39,1.39 0 0 0 1.05,0.44 z m 4.45,-8.28 v 6 a 2.44,2.44 0 0 0 0.51,1.69 2.07,2.07 0 0 0 1.61,0.56 2.64,2.64 0 0 0 2.13,-0.79 4.09,4.09 0 0 0 0.67,-2.61 v -4.85 h 1.4 v 9.26 h -1.15 l -0.21,-1.25 h -0.07 a 2.81,2.81 0 0 1 -1.19,1.07 4.05,4.05 0 0 1 -1.75,0.36 3.55,3.55 0 0 1 -2.53,-0.8 3.45,3.45 0 0 1 -0.85,-2.58 v -6.06 z m 13.54,-0.17 a 6.23,6.23 0 0 1 1.11,0.09 l -0.19,1.31 a 4.58,4.58 0 0 0 -1,-0.14 2.5,2.5 0 0 0 -1.93,0.92 3.31,3.31 0 0 0 -0.8,2.28 v 5 h -1.41 v -9.29 h 1.16 l 0.17,1.7 h 0.06 a 4.12,4.12 0 0 1 1.24,-1.39 2.87,2.87 0 0 1 1.64,-0.48 z m 6.76,9.61 a 4.27,4.27 0 0 1 -3.25,-1.25 4.89,4.89 0 0 1 -1.19,-3.49 5.33,5.33 0 0 1 1.11,-3.55 3.68,3.68 0 0 1 3,-1.32 3.5,3.5 0 0 1 2.75,1.14 4.37,4.37 0 0 1 1,3 v 0.89 h -6.39 a 3.75,3.75 0 0 0 0.83,2.47 2.87,2.87 0 0 0 2.21,0.84 7.59,7.59 0 0 0 3,-0.62 v 1.25 a 7.53,7.53 0 0 1 -1.42,0.46 7.28,7.28 0 0 1 -1.6,0.16 z m -0.38,-8.44 a 2.29,2.29 0 0 0 -1.79,0.73 3.27,3.27 0 0 0 -0.77,2 h 4.84 a 3.05,3.05 0 0 0 -0.59,-2 2.08,2.08 0 0 0 -1.64,-0.73 z m 12.49,7 h -0.08 a 3.27,3.27 0 0 1 -2.9,1.43 3.48,3.48 0 0 1 -2.83,-1.24 5.46,5.46 0 0 1 -1,-3.55 5.55,5.55 0 0 1 1,-3.56 3.44,3.44 0 0 1 2.83,-1.26 3.36,3.36 0 0 1 2.89,1.36 h 0.11 V 97.1 l -0.05,-0.66 V 92.67 H 169 v 13.17 h -1.14 z m -2.81,0.25 a 2.55,2.55 0 0 0 2.09,-0.78 4,4 0 0 0 0.64,-2.53 v -0.3 a 4.7,4.7 0 0 0 -0.65,-2.81 2.51,2.51 0 0 0 -2.1,-0.84 2.14,2.14 0 0 0 -1.89,1 4.69,4.69 0 0 0 -0.65,2.7 4.57,4.57 0 0 0 0.65,2.69 2.21,2.21 0 0 0 1.96,0.88 z m 15.65,1 H 179 V 94.75 h -3.9 v -1.28 h 9.27 v 1.28 h -3.91 z m 9.48,0.18 a 4.27,4.27 0 0 1 -3.25,-1.25 4.85,4.85 0 0 1 -1.19,-3.49 5.33,5.33 0 0 1 1.11,-3.55 3.68,3.68 0 0 1 3,-1.32 3.51,3.51 0 0 1 2.75,1.14 4.42,4.42 0 0 1 1,3 v 0.89 H 187 a 3.7,3.7 0 0 0 0.83,2.47 2.86,2.86 0 0 0 2.2,0.84 7.64,7.64 0 0 0 3,-0.62 v 1.25 a 7.53,7.53 0 0 1 -1.42,0.46 7.28,7.28 0 0 1 -1.67,0.17 z m -0.38,-8.44 a 2.32,2.32 0 0 0 -1.8,0.73 3.33,3.33 0 0 0 -0.76,2 h 4.84 a 3.11,3.11 0 0 0 -0.59,-2 2.09,2.09 0 0 0 -1.64,-0.72 z m 8.41,3.51 -3.22,-4.51 h 1.6 l 2.45,3.54 2.44,-3.54 h 1.57 l -3.21,4.51 3.39,4.75 h -1.6 l -2.59,-3.75 -2.63,3.75 h -1.59 z m 9.84,3.77 a 5.55,5.55 0 0 0 0.72,0 5.43,5.43 0 0 0 0.55,-0.12 v 1.08 a 2.37,2.37 0 0 1 -0.67,0.17 4.81,4.81 0 0 1 -0.8,0.08 c -1.79,0 -2.69,-1 -2.69,-2.85 V 97.66 H 203.6 V 97 l 1.32,-0.57 0.6,-2 h 0.81 v 2.16 H 209 v 1.08 h -2.69 v 5.46 a 1.93,1.93 0 0 0 0.39,1.29 1.4,1.4 0 0 0 1.11,0.44 z"
       id="path14" />
  </g>
  <metadata
     id="metadata312">
    <rdf:RDF>
      <cc:Work
         rdf:about="">
        <dc:title>Artboard 1</dc:title>
      </cc:Work>
    </rdf:RDF>
  </metadata>
</svg>
